# xmcd CD database file
#
# Track frame offsets:
#	150
#	14090
#	30282
#	48390
#	64689
#	79486
#	100810
#	119371
#	135915
#	156006
#
# Disc length: 2279 seconds
#
# Revision: 0
# Processed by: cddbd v1.5.2PL0 Copyright (c) Steve Scherf et al.
# Submitted via: CDex 1.51
#
DISCID=7908e50a
DTITLE=Wills, Mark - Greatest Hits
DYEAR=1900
DGENRE=Country
TTITLE0=Jacob's Ladder
TTITLE1=Places I've Never Been
TTITLE2=Wish You Were Here
TTITLE3=Don't Laugh At Me
TTITLE4=I Do (Cherish You)
TTITLE5=She's In Love
TTITLE6=Back At One
TTITLE7=Almost Doesn't Count
TTITLE8=I'm Not Gonna Do Anything Without You (with Jamie O'Neal)
TTITLE9=Nineteen Somethin'
EXTD=
EXTT0=
EXTT1=
EXTT2=
EXTT3=
EXTT4=
EXTT5=
EXTT6=
EXTT7=
EXTT8=
EXTT9=
PLAYORDER=
